# xmcd
#
# Track frame offsets:
# 150
# 13776
# 26862
# 41059
# 56016
# 88060
# 115559
# 135567
# 159701
# 179140
# 204613
# 220096
#
# Disc length: 3138 seconds
#
#
# Revision: 1
# Processed by: cddbd v1.5.2PL0 Copyright (c) Steve Scherf et al.
# Submitted via: FreeRIP 2.951 
#
DISCID=ae0c400c
DTITLE=Jimmy Raney - Woody Herman's Cool Guitar Player, CD1
DYEAR=2005
DGENRE=Jazz
TTITLE0=Pinch Bottle
TTITLE1=Earless Engineering
TTITLE2=Be Still, TV
TTITLE3=Short P, Not LP
TTITLE4=The Song Is You
TTITLE5=Parker 51
TTITLE6=Thou Swell
TTITLE7=Motion
TTITLE8=Lee
TTITLE9=Signal
TTITLE10=Can't We Be Friends
TTITLE11=Blues For Tiny
EXTD=
EXTT0=
EXTT1=
EXTT2=
EXTT3=
EXTT4=
EXTT5=
EXTT6=
EXTT7=
EXTT8=
EXTT9=
EXTT10=
EXTT11=
PLAYORDER=
